<?xml version="1.0" encoding="UTF-8"?>
<svg version="1.1" xmlns="http://www.w3.org/2000/svg" width="400" height="200">
<path d="M0 0 C7.98960079 -0.09332867 15.97896786 -0.16407939 23.96898174 -0.20724869 C27.68044696 -0.22798433 31.39153498 -0.25603909 35.1027832 -0.30175781 C38.69493544 -0.3457245 42.28672854 -0.36924205 45.87912941 -0.37950897 C47.89347318 -0.39032566 49.90767563 -0.4214672 51.92179871 -0.45318604 C63.35378413 -0.4559265 75.05731959 1.28072267 83.578125 9.52734375 C89.68622039 16.06537789 91.31865646 22.26464876 91.3984375 31.09375 C91 34 91 34 88 42 C78.1 42.495 78.1 42.495 68 43 C68.33 41.35 68.66 39.7 69 38 C70.01281902 24.79846846 70.01281902 24.79846846 64.48828125 13.296875 C55.88508229 5.33166607 46.83886878 5.39280809 35 4 C35 16.54 35 29.08 35 42 C28.73 42 22.46 42 16 42 C15.96261719 40.31132813 15.92523438 38.62265625 15.88671875 36.8828125 C15.82101719 34.63018767 15.75457134 32.37758446 15.6875 30.125 C15.66494141 29.01640625 15.64238281 27.9078125 15.61914062 26.765625 C15.39862784 19.9497752 14.94462412 13.25950659 12 7 C8.23755694 4.24087509 4.59143995 3.54659999 0 3 C0 2.01 0 1.02 0 0 Z " fill="#EBEBEB" transform="translate(212,46)"/>
<path d="M0 0 C6.27 0 12.54 0 19 0 C19.68668624 3.43343121 20.18044003 6.4613663 20.4296875 9.90625 C20.50316406 10.81503906 20.57664063 11.72382813 20.65234375 12.66015625 C20.80073477 14.55279255 20.94136687 16.44605325 21.07421875 18.33984375 C21.59733416 25.17381871 21.59733416 25.17381871 25 31 C27.82785499 32.90471224 30.38716131 33.32827894 33.75 33.625 C34.54921875 33.69976562 35.3484375 33.77453125 36.171875 33.8515625 C36.77515625 33.90054688 37.3784375 33.94953125 38 34 C38 35.32 38 36.64 38 38 C20.18 38 2.36 38 -16 38 C-16 36.68 -16 35.36 -16 34 C-15.31292969 33.89042969 -14.62585938 33.78085938 -13.91796875 33.66796875 C-13.01691406 33.50941406 -12.11585938 33.35085937 -11.1875 33.1875 C-10.29417969 33.03667969 -9.40085938 32.88585937 -8.48046875 32.73046875 C-5.69883542 31.91131059 -4.82725256 31.20038615 -3 29 C-0.68151452 22.81391005 -0.60566622 15.96557255 -0.375 9.4375 C-0.25125 6.323125 -0.1275 3.20875 0 0 Z " fill="#E0E0E0" transform="translate(228,122)"/>
<path d="M0 0 C4.95 0 9.9 0 15 0 C15.10851234 3.83410271 15.18757134 7.66509683 15.25 11.5 C15.30027344 13.11648437 15.30027344 13.11648437 15.3515625 14.765625 C15.43614661 21.70152225 14.73743955 26.11028721 11 32 C5.20386806 37.64751317 -1.43066225 38.98188684 -9.3125 39.1875 C-16.91658223 39.04692033 -23.02448743 38.04985039 -28.6796875 32.64453125 C-30.72964884 30.09117704 -31.13812693 28.24598284 -31 25 C-29.9375 22.1875 -29.9375 22.1875 -28 20 C-25.125 18.875 -25.125 18.875 -22 19 C-16.89375703 22.56249509 -15.54241338 27.24416472 -14 33 C-12.56589632 33.24954005 -11.12739928 33.47392642 -9.6875 33.6875 C-8.88699219 33.81511719 -8.08648437 33.94273437 -7.26171875 34.07421875 C-4.95367288 34.20695392 -4.95367288 34.20695392 -3.26953125 32.76953125 C-0.66065398 29.13315771 -0.82738505 25.05794728 -0.68359375 20.703125 C-0.64169922 19.49785156 -0.59980469 18.29257813 -0.55664062 17.05078125 C-0.51732422 15.79652344 -0.47800781 14.54226562 -0.4375 13.25 C-0.37272461 11.34541016 -0.37272461 11.34541016 -0.30664062 9.40234375 C-0.20060345 6.2683562 -0.09980152 3.13419232 0 0 Z " fill="#E9E9E9" transform="translate(136,122)"/>
<path d="M0 0 C13.86 0 27.72 0 42 0 C42 0.99 42 1.98 42 3 C38.7 3.66 35.4 4.32 32 5 C30.47932823 9.82448 29.67256801 14.16368962 29.3671875 19.24609375 C29.32562531 19.90207047 29.28406311 20.55804718 29.24124146 21.23390198 C29.11189855 23.30139876 28.99326315 25.36934297 28.875 27.4375 C28.78847185 28.85095519 28.70123862 30.2643674 28.61328125 31.67773438 C28.39939709 35.11804093 28.20004791 38.55875036 28 42 C23.05 42 18.1 42 13 42 C12.92652344 39.82664062 12.92652344 39.82664062 12.8515625 37.609375 C13.1497356 20.61006307 13.1497356 20.61006307 8 5 C6.04614933 4.21011855 6.04614933 4.21011855 3.875 3.8125 C2.59625 3.544375 1.3175 3.27625 0 3 C0 2.01 0 1.02 0 0 Z " fill="#E7E7E7" transform="translate(123,46)"/>
<path d="M0 0 C3.64779706 3.24248628 4.63132068 8.45714948 6 13 C6.62648438 13.06058594 7.25296875 13.12117187 7.8984375 13.18359375 C8.71570313 13.26738281 9.53296875 13.35117188 10.375 13.4375 C11.18710938 13.51871094 11.99921875 13.59992188 12.8359375 13.68359375 C15 14 15 14 17 15 C15.02 15.99 15.02 15.99 13 17 C13.66 17.66 14.32 18.32 15 19 C7.0261801 19.25313714 -0.45872574 19.34952402 -7 14.25 C-9.26674531 12.0834132 -10.01321133 10.96403582 -11.125 7.9375 C-10.97598672 4.43568803 -10.12614404 2.75611264 -8 0 C-5.03475663 -1.48262169 -3.14877613 -0.83538959 0 0 Z " fill="#D7D7D7" transform="translate(116,142)"/>
<path d="M0 0 C1.32 0 2.64 0 4 0 C4 20.46 4 40.92 4 62 C2.68 62 1.36 62 0 62 C0 41.54 0 21.08 0 0 Z " fill="#BBBBBB" transform="translate(192,26)"/>
<path d="M0 0 C2.82572058 1.03293147 3.82978305 1.67952982 5.265625 4.3828125 C6.17708333 6.921875 7.08854167 9.4609375 8 12 C9.65 8.04 11.3 4.08 13 0 C13.66 0 14.32 0 15 0 C15.67305018 1.60149886 16.33822227 3.20631029 17 4.8125 C17.37125 5.70582031 17.7425 6.59914063 18.125 7.51953125 C19 10 19 10 19 13 C19.66 13 20.32 13 21 13 C21.12117188 12.39671875 21.24234375 11.7934375 21.3671875 11.171875 C21.53476562 10.37265625 21.70234375 9.5734375 21.875 8.75 C22.03742188 7.96109375 22.19984375 7.1721875 22.3671875 6.359375 C22.99150075 4.03168856 23.84838542 2.10968048 25 0 C25.99 0 26.98 0 28 0 C25.96192707 7.1178153 23.59655258 14.06707281 21 21 C20.34 21 19.68 21 19 21 C17.35 17.04 15.7 13.08 14 9 C12.35 12.96 10.7 16.92 9 21 C8.34 21 7.68 21 7 21 C5.82504857 18.06574629 4.66149148 15.12710487 3.5 12.1875 C3.16613281 11.35412109 2.83226562 10.52074219 2.48828125 9.66210938 C2.17246094 8.85966797 1.85664063 8.05722656 1.53125 7.23046875 C1.23798828 6.49207764 0.94472656 5.75368652 0.64257812 4.99291992 C0 3 0 3 0 0 Z " fill="#ABABAB" transform="translate(263,93)"/>
<path d="M0 0 C4.01987409 2.00993705 6.14516995 3.93846389 9.25 7.125 C10.14203125 8.03507812 11.0340625 8.94515625 11.953125 9.8828125 C12.62859375 10.58148438 13.3040625 11.28015625 14 12 C14.33 8.37 14.66 4.74 15 1 C15.99 0.67 16.98 0.34 18 0 C19.10087193 7.01805857 19.09733092 13.90565767 19 21 C15.90237257 19.62478958 13.80008263 18.04572224 11.4375 15.625 C10.56931641 14.74714844 10.56931641 14.74714844 9.68359375 13.8515625 C8.00281173 12.00309225 6.49902414 9.99869885 5 8 C4.67 12.29 4.34 16.58 4 21 C2.68 20.67 1.36 20.34 0 20 C0 13.4 0 6.8 0 0 Z " fill="#898989" transform="translate(70,93)"/>
<path d="M0 0 C3.0413374 1.63764322 5.28615407 3.09993339 7.4375 5.8125 C8.31325348 9.218208 7.89136765 11.61280292 7 15 C4.38139847 18.54281383 2.74658348 19.78669043 -1.5 21 C-6.32773113 21 -8.42288871 19.52272814 -11.8125 16.25 C-13.57098729 12.91812934 -13.51262487 10.71653027 -13 7 C-9.65907444 1.45653833 -6.45564528 -0.62073512 0 0 Z M-8 5 C-10.32482194 7.90193585 -10.32482194 7.90193585 -10.0625 11.625 C-9.24932579 14.96529109 -9.24932579 14.96529109 -7.3125 17 C-4.12832007 18.37694267 -2.29075199 17.980224 1 17 C3.0096894 15.54470767 3.8040708 14.40585334 4.875 12.1875 C5.07575968 8.67420556 4.01548966 6.83428234 2 4 C-2.40768903 2.44914645 -4.08145779 2.38763853 -8 5 Z " fill="#A7A7A7" transform="translate(184,93)"/>
<path d="M0 0 C10.89028213 1.21003135 10.89028213 1.21003135 14 5 C15.34601363 9.02121571 15.4466797 11.97263668 13.75 15.875 C9.51993212 21.01151099 7.37397958 20.18066894 0 21 C0 14.07 0 7.14 0 0 Z M3 3 C3 7.95 3 12.9 3 18 C9.57972841 16.81571176 9.57972841 16.81571176 11.5 14.25 C12.17351532 11.21918104 11.77945128 8.98789657 11 6 C8.74813012 3.36063799 8.74813012 3.36063799 3 3 Z " fill="#8F8F8F" transform="translate(117,93)"/>
<path d="M0 0 C0.99 0 1.98 0 3 0 C3 2.64 3 5.28 3 8 C5.97 8 8.94 8 12 8 C12 5.69 12 3.38 12 1 C12.99 0.67 13.98 0.34 15 0 C15 6.93 15 13.86 15 21 C14.01 21 13.02 21 12 21 C12 17.7 12 14.4 12 11 C9.03 11 6.06 11 3 11 C3.33 13.97 3.66 16.94 4 20 C2.68 20.33 1.36 20.66 0 21 C0 14.07 0 7.14 0 0 Z " fill="#A4A4A4" transform="translate(217,93)"/>
<path d="M0 0 C1.37478516 0.01740234 1.37478516 0.01740234 2.77734375 0.03515625 C3.69644531 0.04417969 4.61554688 0.05320312 5.5625 0.0625 C6.27277344 0.07410156 6.98304687 0.08570312 7.71484375 0.09765625 C7.71484375 1.08765625 7.71484375 2.07765625 7.71484375 3.09765625 C5.40484375 3.09765625 3.09484375 3.09765625 0.71484375 3.09765625 C0.71484375 4.41765625 0.71484375 5.73765625 0.71484375 7.09765625 C3.02484375 7.42765625 5.33484375 7.75765625 7.71484375 8.09765625 C7.71484375 9.08765625 7.71484375 10.07765625 7.71484375 11.09765625 C5.40484375 11.42765625 3.09484375 11.75765625 0.71484375 12.09765625 C1.04484375 13.74765625 1.37484375 15.39765625 1.71484375 17.09765625 C3.69484375 17.09765625 5.67484375 17.09765625 7.71484375 17.09765625 C7.71484375 18.41765625 7.71484375 19.73765625 7.71484375 21.09765625 C6.06909809 21.12453776 4.42322962 21.14399748 2.77734375 21.16015625 C1.86082031 21.17175781 0.94429688 21.18335937 0 21.1953125 C-2.28515625 21.09765625 -2.28515625 21.09765625 -3.28515625 20.09765625 C-3.38375756 18.6941689 -3.41594562 17.28585148 -3.41796875 15.87890625 C-3.41925781 15.02941406 -3.42054687 14.17992188 -3.421875 13.3046875 C-3.41800781 12.41136719 -3.41414063 11.51804687 -3.41015625 10.59765625 C-3.41402344 9.70433594 -3.41789062 8.81101562 -3.421875 7.890625 C-3.42058594 7.04113281 -3.41929688 6.19164063 -3.41796875 5.31640625 C-3.41684082 4.53201172 -3.41571289 3.74761719 -3.41455078 2.93945312 C-3.21905057 0.15671051 -2.7869462 0.11910026 0 0 Z " fill="#B7B7B7" transform="translate(100.28515625,92.90234375)"/>
<path d="M0 0 C0.66 0 1.32 0 2 0 C3.17538461 2.74656201 4.34049752 5.49674122 5.5 8.25 C5.83386719 9.02730469 6.16773438 9.80460937 6.51171875 10.60546875 C6.82753906 11.35957031 7.14335937 12.11367187 7.46875 12.890625 C7.90864258 13.92751465 7.90864258 13.92751465 8.35742188 14.98535156 C9 17 9 17 9 21 C8.01 21 7.02 21 6 21 C5.34 19.35 4.68 17.7 4 16 C1.36 15.67 -1.28 15.34 -4 15 C-4.33 16.98 -4.66 18.96 -5 21 C-6.32 21 -7.64 21 -9 21 C-7.55353261 16.45096486 -5.82973348 12.06587966 -3.9375 7.6875 C-3.66873047 7.05521484 -3.39996094 6.42292969 -3.12304688 5.77148438 C-1.12676222 1.12676222 -1.12676222 1.12676222 0 0 Z M0 6 C-0.66 7.98 -1.32 9.96 -2 12 C-0.35 12 1.3 12 3 12 C2.34 10.02 1.68 8.04 1 6 C0.67 6 0.34 6 0 6 Z " fill="#BABABA" transform="translate(248,93)"/>
<path d="M0 0 C0.33 5.61 0.66 11.22 1 17 C3.31 17 5.62 17 8 17 C8.33 11.39 8.66 5.78 9 0 C9.99 0 10.98 0 12 0 C12.13559675 2.56428515 12.23433188 5.12135216 12.3125 7.6875 C12.3753418 8.7693457 12.3753418 8.7693457 12.43945312 9.87304688 C12.53467566 14.04379408 12.32823724 15.56831491 9.70703125 19.015625 C7 21 7 21 3.375 21.0625 C0 20 0 20 -1.9375 18.3125 C-3.27991951 15.39076342 -3.20759211 13.18307905 -3 10 C-3 9.34 -3 8.68 -3 8 C-3 5.66666667 -3 3.33333333 -3 1 C-1 0 -1 0 0 0 Z " fill="#A7A7A7" transform="translate(50,93)"/>
<path d="M0 0 C3 1 3 1 3.9831543 2.62646484 C4.3994812 3.65827881 4.3994812 3.65827881 4.82421875 4.7109375 C5.13037109 5.46117188 5.43652344 6.21140625 5.75195312 6.984375 C6.06068359 7.77328125 6.36941406 8.5621875 6.6875 9.375 C7.00783203 10.15617187 7.32816406 10.93734375 7.65820312 11.7421875 C10 17.57421042 10 17.57421042 10 21 C9.01 21 8.02 21 7 21 C6.34 19.35 5.68 17.7 5 16 C2.36 15.67 -0.28 15.34 -3 15 C-3.33 16.65 -3.66 18.3 -4 20 C-5.32 20.33 -6.64 20.66 -8 21 C-5.72564796 13.81783567 -2.96415819 6.9241798 0 0 Z M1 6 C0.34 7.98 -0.32 9.96 -1 12 C0.65 12 2.3 12 4 12 C3.34 10.02 2.68 8.04 2 6 C1.67 6 1.34 6 1 6 Z " fill="#9A9A9A" transform="translate(304,93)"/>
<path d="M0 0 C3.3 0 6.6 0 10 0 C10 1.32 10 2.64 10 4 C7.69 3.67 5.38 3.34 3 3 C3 4.65 3 6.3 3 8 C5.31 8 7.62 8 10 8 C10 8.99 10 9.98 10 11 C7.69 11 5.38 11 3 11 C3 13.31 3 15.62 3 18 C3.66 17.67 4.32 17.34 5 17 C6.99960012 16.960008 9.00047242 16.95653201 11 17 C11 17.99 11 18.98 11 20 C7.26513121 20.5745952 3.78706732 21 0 21 C0 14.07 0 7.14 0 0 Z " fill="#B4B4B4" transform="translate(337,93)"/>
<path d="M0 0 C1.32 0 2.64 0 4 0 C4 10.23 4 20.46 4 31 C2.68 31 1.36 31 0 31 C0 20.77 0 10.54 0 0 Z " fill="#B8B8B8" transform="translate(192,122)"/>
<path d="M0 0 C9 1 9 1 11 3 C11.333728 6.13704316 11.52849028 8.16554166 9.8125 10.875 C7.43963721 12.34781139 5.74086056 12.22223194 3 12 C3 14.97 3 17.94 3 21 C2.01 21 1.02 21 0 21 C0 14.07 0 7.14 0 0 Z M3 3 C3 4.98 3 6.96 3 9 C4.65 8.67 6.3 8.34 8 8 C8 6.68 8 5.36 8 4 C6.35 3.67 4.7 3.34 3 3 Z " fill="#737373" transform="translate(153,93)"/>
<path d="M0 0 C3.96 0 7.92 0 12 0 C11.67 1.32 11.34 2.64 11 4 C9.68 3.67 8.36 3.34 7 3 C7.33 3.66 7.66 4.32 8 5 C8.0969632 6.95637514 8.12978917 8.91622931 8.125 10.875 C8.12757813 11.92429687 8.13015625 12.97359375 8.1328125 14.0546875 C8.01998664 16.55676685 7.72508762 18.61756923 7 21 C6.01 21 5.02 21 4 21 C3.67 15.39 3.34 9.78 3 4 C2.01 4 1.02 4 0 4 C0 2.68 0 1.36 0 0 Z " fill="#606060" transform="translate(198,93)"/>
<path d="M0 0 C0.99 0.33 1.98 0.66 3 1 C3.10806144 3.91765891 3.18732877 6.83131125 3.25 9.75 C3.30027344 10.9875 3.30027344 10.9875 3.3515625 12.25 C3.45112665 18.42297754 3.45112665 18.42297754 0.984375 21.578125 C0.32953125 22.04734375 -0.3253125 22.5165625 -1 23 C-3.475 22.01 -3.475 22.01 -6 21 C-6 20.34 -6 19.68 -6 19 C-4.35 19 -2.7 19 -1 19 C-1.01160156 17.71222656 -1.02320313 16.42445312 -1.03515625 15.09765625 C-1.0445327 13.41927228 -1.05363305 11.74088674 -1.0625 10.0625 C-1.07087891 9.21236328 -1.07925781 8.36222656 -1.08789062 7.48632812 C-1.09111328 6.67744141 -1.09433594 5.86855469 -1.09765625 5.03515625 C-1.10289307 4.2862915 -1.10812988 3.53742676 -1.11352539 2.76586914 C-1 1 -1 1 0 0 Z " fill="#848484" transform="translate(36,93)"/>
<path d="M0 0 C0.66 0 1.32 0 2 0 C2.33 5.61 2.66 11.22 3 17 C4.65 17 6.3 17 8 17 C7.67 18.32 7.34 19.64 7 21 C4.66705225 21.04241723 2.33297433 21.04092937 0 21 C-1.55606751 19.44393249 -1.12970769 17.94042629 -1.1328125 15.78125 C-1.13410156 14.93175781 -1.13539063 14.08226563 -1.13671875 13.20703125 C-1.13285156 12.31371094 -1.12898438 11.42039062 -1.125 10.5 C-1.12886719 9.60667969 -1.13273437 8.71335937 -1.13671875 7.79296875 C-1.13542969 6.94347656 -1.13414062 6.09398438 -1.1328125 5.21875 C-1.13168457 4.43435547 -1.13055664 3.64996094 -1.12939453 2.84179688 C-1 1 -1 1 0 0 Z " fill="#A6A6A6" transform="translate(322,93)"/>
<path d="M0 0 C0.33 0 0.66 0 1 0 C1 5.28 1 10.56 1 16 C1.66 16 2.32 16 3 16 C3 14.35 3 12.7 3 11 C3.33 11 3.66 11 4 11 C4.33 12.65 4.66 14.3 5 16 C6.98 16 8.96 16 11 16 C11 17.32 11 18.64 11 20 C9.35425434 20.02688151 7.70838587 20.04634123 6.0625 20.0625 C5.14597656 20.07410156 4.22945313 20.08570312 3.28515625 20.09765625 C1 20 1 20 0 19 C-0.08651611 17.58429877 -0.10704904 16.164405 -0.09765625 14.74609375 C-0.09443359 13.89208984 -0.09121094 13.03808594 -0.08789062 12.15820312 C-0.07951172 11.26037109 -0.07113281 10.36253906 -0.0625 9.4375 C-0.05798828 8.53580078 -0.05347656 7.63410156 -0.04882812 6.70507812 C-0.03700225 4.46998686 -0.0205222 2.23502563 0 0 Z " fill="#5F5F5F" transform="translate(97,94)"/>
<path d="M0 0 C0.66 0 1.32 0 2 0 C2.99 3.3 3.98 6.6 5 10 C4.01 10.33 3.02 10.66 2 11 C1.34 10.34 0.68 9.68 0 9 C-0.33 9.66 -0.66 10.32 -1 11 C0.32 11.66 1.64 12.32 3 13 C-2.75 13.125 -2.75 13.125 -5 12 C-4.54738642 10.56068883 -4.08767021 9.12361001 -3.625 7.6875 C-3.24214844 6.48673828 -3.24214844 6.48673828 -2.8515625 5.26171875 C-2 3 -2 3 0 0 Z " fill="#9B9B9B" transform="translate(248,93)"/>
<path d="M0 0 C3.3 0 6.6 0 10 0 C10 1.32 10 2.64 10 4 C7.69 3.67 5.38 3.34 3 3 C3 4.65 3 6.3 3 8 C5.31 8 7.62 8 10 8 C10 8.33 10 8.66 10 9 C7.36 9 4.72 9 2 9 C2.020625 7.865625 2.04125 6.73125 2.0625 5.5625 C2.41577477 2.18424326 2.41577477 2.18424326 1 1 C1 7.6 1 14.2 1 21 C0.67 21 0.34 21 0 21 C0 14.07 0 7.14 0 0 Z " fill="#737273" transform="translate(337,93)"/>
<path d="M0 0 C1.98 0 3.96 0 6 0 C6.33 0.66 6.66 1.32 7 2 C5.35 2.33 3.7 2.66 2 3 C2 8.94 2 14.88 2 21 C1.34 21 0.68 21 0 21 C0 14.07 0 7.14 0 0 Z " fill="#C4C4C4" transform="translate(117,93)"/>
<path d="M0 0 C1.32 0 2.64 0 4 0 C4 0.66 4 1.32 4 2 C3.34 2 2.68 2 2 2 C2 4.31 2 6.62 2 9 C3.65 9 5.3 9 7 9 C7 9.66 7 10.32 7 11 C5.35 11 3.7 11 2 11 C2 13.64 2 16.28 2 19 C1.34 19 0.68 19 0 19 C0 12.73 0 6.46 0 0 Z " fill="#E7E7E7" transform="translate(154,94)"/>
<path d="M0 0 C1.65 0 3.3 0 5 0 C4.01 0.33 3.02 0.66 2 1 C2.33 1.66 2.66 2.32 3 3 C3.09672832 4.97724061 3.12979903 6.9579006 3.125 8.9375 C3.12757813 9.99839844 3.13015625 11.05929688 3.1328125 12.15234375 C3 15 3 15 2 18 C1.34 18 0.68 18 0 18 C0 12.06 0 6.12 0 0 Z " fill="#BBBBBB" transform="translate(203,95)"/>
<path d="M0 0 C0.99 0 1.98 0 3 0 C1.41078475 5.36095277 -0.18972938 10.70843973 -2 16 C-3.32 15.67 -4.64 15.34 -6 15 C-6 14.34 -6 13.68 -6 13 C-5.34 13 -4.68 13 -4 13 C-3.87882812 12.39671875 -3.75765625 11.7934375 -3.6328125 11.171875 C-3.46523438 10.37265625 -3.29765625 9.5734375 -3.125 8.75 C-2.88136719 7.56664063 -2.88136719 7.56664063 -2.6328125 6.359375 C-2.00849925 4.03168856 -1.15161458 2.10968048 0 0 Z " fill="#9C9C9C" transform="translate(288,93)"/>
<path d="M0 0 C3.18462224 0.94677958 4.73697662 1.66441845 6.8125 4.3125 C8.06161737 7.13944983 8.26151458 8.94899661 8 12 C7.01 12 6.02 12 5 12 C4.76216797 11.15115234 4.76216797 11.15115234 4.51953125 10.28515625 C3.81418295 8.06779058 3.10846848 6.04806871 2 4 C-0.57080135 2.86559222 -0.57080135 2.86559222 -3 3 C-2.01 2.01 -1.02 1.02 0 0 Z " fill="#AAAAAA" transform="translate(124,94)"/>
<path d="M0 0 C0.99 0.33 1.98 0.66 3 1 C3 2.98 3 4.96 3 7 C2.01 7.495 2.01 7.495 1 8 C0.67 8.99 0.34 9.98 0 11 C-0.66 11 -1.32 11 -2 11 C-2 11.66 -2 12.32 -2 13 C0.31 13 2.62 13 5 13 C5 13.33 5 13.66 5 14 C2.36 14 -0.28 14 -3 14 C-3.40652968 8.57960425 -2.03993514 4.92984325 0 0 Z " fill="#C1C1C1" transform="translate(304,93)"/>
<path d="M0 0 C0.33 5.28 0.66 10.56 1 16 C0.34 15.34 -0.32 14.68 -1 14 C-1.66 14.66 -2.32 15.32 -3 16 C-3 11 -3 6 -3 1 C-1 0 -1 0 0 0 Z " fill="#939393" transform="translate(50,93)"/>
<path d="M0 0 C0.680625 0.804375 1.36125 1.60875 2.0625 2.4375 C5.48477302 5.42288711 7.5428126 5.73781251 12 6 C10.9375 7.5625 10.9375 7.5625 9 9 C2.66666667 8.66666667 2.66666667 8.66666667 0 6 C-0.125 2.875 -0.125 2.875 0 0 Z " fill="#ADADAD" transform="translate(48,105)"/>
<path d="M0 0 C3.76687864 1.88343932 4.79421646 2.69132469 7 6 C6.01 6.33 5.02 6.66 4 7 C3.34 6.34 2.68 5.68 2 5 C1.67 9.29 1.34 13.58 1 18 C0.67 18 0.34 18 0 18 C0 12.06 0 6.12 0 0 Z " fill="#D5D5D5" transform="translate(72,95)"/>
<path d="M0 0 C1.125 1.75 1.125 1.75 2 4 C1.22852759 6.62300621 0.43709256 7.69855685 -1.8125 9.25 C-4.32321365 10.11081611 -6.36348649 10.14647297 -9 10 C-8.67 9.01 -8.34 8.02 -8 7 C-4.4375 5.8125 -4.4375 5.8125 -1 5 C-0.67 3.35 -0.34 1.7 0 0 Z " fill="#909090" transform="translate(188,104)"/>
<path d="M0 0 C2.37948772 0.17625835 3.70225849 0.69719773 5.37890625 2.40234375 C6.62115486 3.90649092 7.81376056 5.45129851 9 7 C8.01 7.66 7.02 8.32 6 9 C4.99406757 7.8803014 3.9954151 6.7540588 3 5.625 C2.443125 4.99851562 1.88625 4.37203125 1.3125 3.7265625 C0 2 0 2 0 0 Z " fill="#A1A1A1" transform="translate(77,101)"/>
<path d="M0 0 C-0.33 0.99 -0.66 1.98 -1 3 C-3.31 2.67 -5.62 2.34 -8 2 C-8 3.65 -8 5.3 -8 7 C-5.69 7 -3.38 7 -1 7 C-1 7.33 -1 7.66 -1 8 C-3.64 8 -6.28 8 -9 8 C-9 5.69 -9 3.38 -9 1 C-5.92677456 0.08941469 -3.19902639 -0.08886184 0 0 Z " fill="#909090" transform="translate(348,94)"/>
<path d="M0 0 C-0.33 0.99 -0.66 1.98 -1 3 C-2.875 3.8125 -2.875 3.8125 -5 4 C-5.99 3.34 -6.98 2.68 -8 2 C-8 1.34 -8 0.68 -8 0 C-2.25 -1.125 -2.25 -1.125 0 0 Z " fill="#939393" transform="translate(38,112)"/>
<path d="M0 0 C3.66881155 0.70554068 6.70450534 2.27735506 10 4 C10 4.33 10 4.66 10 5 C3.51707705 5.3669579 3.51707705 5.3669579 1.0625 3.625 C0 2 0 2 0 0 Z " fill="#C4C4C4" transform="translate(173,108)"/>
<path d="M0 0 C0.66 0 1.32 0 2 0 C3.125 5.625 3.125 5.625 2 9 C1.34 9 0.68 9 0 9 C0 6.03 0 3.06 0 0 Z " fill="#BABABA" transform="translate(189,99)"/>
<path d="M0 0 C0.33 0.66 0.66 1.32 1 2 C1.99 1.67 2.98 1.34 4 1 C3.67 3.31 3.34 5.62 3 8 C2.34 8 1.68 8 1 8 C0.67 5.36 0.34 2.72 0 0 Z " fill="#C7C7C7" transform="translate(281,106)"/>
<path d="M0 0 C0.598125 0.350625 1.19625 0.70125 1.8125 1.0625 C1.4825 3.0425 1.1525 5.0225 0.8125 7.0625 C-1.1875 4.0625 -1.1875 4.0625 -2.1875 2.0625 C-3.1775 1.4025 -4.1675 0.7425 -5.1875 0.0625 C-2.1875 -0.9375 -2.1875 -0.9375 0 0 Z " fill="#8F8F8F" transform="translate(188.1875,95.9375)"/>
<path d="M0 0 C0.66 0.33 1.32 0.66 2 1 C1.67 2.65 1.34 4.3 1 6 C-0.32 6.33 -1.64 6.66 -3 7 C-1.125 1.125 -1.125 1.125 0 0 Z " fill="#A1A1A1" transform="translate(299,107)"/>
<path d="M0 0 C0.99 0.33 1.98 0.66 3 1 C3.33 3.31 3.66 5.62 4 8 C3.01 8.33 2.02 8.66 1 9 C-0.4783226 6.04335481 -0.06032783 3.25770263 0 0 Z " fill="#8F8F8F" transform="translate(171,100)"/>
<path d="M0 0 C0.99 0.33 1.98 0.66 3 1 C2.67 2.65 2.34 4.3 2 6 C0.68 6 -0.64 6 -2 6 C-1.34 4.02 -0.68 2.04 0 0 Z " fill="#777777" transform="translate(241,108)"/>
<path d="M0 0 C0.99 0.66 1.98 1.32 3 2 C1.25 5.875 1.25 5.875 -1 7 C-1 6.34 -1 5.68 -1 5 C-1.66 4.67 -2.32 4.34 -3 4 C-2.34 3.67 -1.68 3.34 -1 3 C-0.67 2.01 -0.34 1.02 0 0 Z " fill="#999999" transform="translate(128,105)"/>
<path d="M0 0 C0.99 0 1.98 0 3 0 C2.67 1.32 2.34 2.64 2 4 C1.34 4 0.68 4 0 4 C0 5.65 0 7.3 0 9 C-0.33 9 -0.66 9 -1 9 C-1.09765625 2.84765625 -1.09765625 2.84765625 -1 1 C-0.67 0.67 -0.34 0.34 0 0 Z " fill="#CCCCCC" transform="translate(173,97)"/>
<path d="M0 0 C1.98 0.99 1.98 0.99 4 2 C3.67 3.98 3.34 5.96 3 8 C1.0549 5.08235 0.54723683 3.37462715 0 0 Z " fill="#969696" transform="translate(263,93)"/>
<path d="M0 0 C1.32 0 2.64 0 4 0 C3.67 1.32 3.34 2.64 3 4 C1.68 3.67 0.36 3.34 -1 3 C-0.67 2.01 -0.34 1.02 0 0 Z " fill="#7E7E7E" transform="translate(326,110)"/>
<path d="M0 0 C0.33 0.66 0.66 1.32 1 2 C1.66 2.33 2.32 2.66 3 3 C2.34 4.65 1.68 6.3 1 8 C0.34 7.34 -0.32 6.68 -1 6 C-0.625 2.875 -0.625 2.875 0 0 Z " fill="#9F9F9F" transform="translate(273,100)"/>
<path d="M0 0 C0.33 0.99 0.66 1.98 1 3 C0.01 3.495 0.01 3.495 -1 4 C-0.67 2.68 -0.34 1.36 0 0 Z " fill="#000000" transform="translate(283,99)"/>
<path d="M0 0 C0.66 0 1.32 0 2 0 C1.67 0.99 1.34 1.98 1 3 C0.67 2.01 0.34 1.02 0 0 Z " fill="#000000" transform="translate(158,98)"/>
<path d="" fill="#000000" transform="translate(0,0)"/>
<path d="M0 0 C0.66 0.66 1.32 1.32 2 2 C1.34 2 0.68 2 0 2 C0 1.34 0 0.68 0 0 Z " fill="#000000" transform="translate(75,103)"/>
<path d="M0 0 C0.99 0.495 0.99 0.495 2 1 C1.01 1.495 1.01 1.495 0 2 C0 1.34 0 0.68 0 0 Z " fill="#000000" transform="translate(270,100)"/>
<path d="" fill="#000000" transform="translate(0,0)"/>
<path d="M0 0 C2 1 2 1 2 1 Z " fill="#000000" transform="translate(123,108)"/>
<path d="M0 0 C2 1 2 1 2 1 Z " fill="#000000" transform="translate(276,104)"/>
<path d="" fill="#000000" transform="translate(0,0)"/>
<path d="" fill="#000000" transform="translate(0,0)"/>
<path d="" fill="#000000" transform="translate(0,0)"/>
<path d="" fill="#000000" transform="translate(0,0)"/>
<path d="" fill="#000000" transform="translate(0,0)"/>
<path d="" fill="#000000" transform="translate(0,0)"/>
<path d="" fill="#000000" transform="translate(0,0)"/>
<path d="" fill="#000000" transform="translate(0,0)"/>
<path d="" fill="#000000" transform="translate(0,0)"/>
<path d="" fill="#000000" transform="translate(0,0)"/>
<path d="" fill="#000000" transform="translate(0,0)"/>
<path d="" fill="#000000" transform="translate(0,0)"/>
<path d="" fill="#000000" transform="translate(0,0)"/>
<path d="" fill="#000000" transform="translate(0,0)"/>
<path d="" fill="#000000" transform="translate(0,0)"/>
<path d="" fill="#000000" transform="translate(0,0)"/>
<path d="" fill="#000000" transform="translate(0,0)"/>
<path d="" fill="#000000" transform="translate(0,0)"/>
<path d="" fill="#000000" transform="translate(0,0)"/>
<path d="" fill="#000000" transform="translate(0,0)"/>
<path d="" fill="#000000" transform="translate(0,0)"/>
<path d="" fill="#000000" transform="translate(0,0)"/>
<path d="" fill="#000000" transform="translate(0,0)"/>
<path d="" fill="#000000" transform="translate(0,0)"/>
<path d="" fill="#000000" transform="translate(0,0)"/>
<path d="" fill="#000000" transform="translate(0,0)"/>
<path d="" fill="#000000" transform="translate(0,0)"/>
<path d="" fill="#000000" transform="translate(0,0)"/>
<path d="" fill="#000000" transform="translate(0,0)"/>
<path d="" fill="#000000" transform="translate(0,0)"/>
<path d="" fill="#000000" transform="translate(0,0)"/>
<path d="" fill="#000000" transform="translate(0,0)"/>
<path d="" fill="#000000" transform="translate(0,0)"/>
<path d="" fill="#000000" transform="translate(0,0)"/>
<path d="" fill="#000000" transform="translate(0,0)"/>
<path d="" fill="#000000" transform="translate(0,0)"/>
<path d="" fill="#000000" transform="translate(0,0)"/>
<path d="" fill="#000000" transform="translate(0,0)"/>
<path d="" fill="#000000" transform="translate(0,0)"/>
<path d="" fill="#000000" transform="translate(0,0)"/>
<path d="" fill="#000000" transform="translate(0,0)"/>
<path d="" fill="#000000" transform="translate(0,0)"/>
<path d="" fill="#000000" transform="translate(0,0)"/>
<path d="" fill="#000000" transform="translate(0,0)"/>
<path d="" fill="#000000" transform="translate(0,0)"/>
<path d="" fill="#000000" transform="translate(0,0)"/>
<path d="" fill="#000000" transform="translate(0,0)"/>
<path d="" fill="#000000" transform="translate(0,0)"/>
<path d="" fill="#000000" transform="translate(0,0)"/>
<path d="" fill="#000000" transform="translate(0,0)"/>
<path d="" fill="#000000" transform="translate(0,0)"/>
<path d="" fill="#000000" transform="translate(0,0)"/>
<path d="" fill="#000000" transform="translate(0,0)"/>
<path d="" fill="#000000" transform="translate(0,0)"/>
<path d="" fill="#000000" transform="translate(0,0)"/>
<path d="" fill="#000000" transform="translate(0,0)"/>
<path d="" fill="#000000" transform="translate(0,0)"/>
<path d="" fill="#000000" transform="translate(0,0)"/>
<path d="" fill="#000000" transform="translate(0,0)"/>
<path d="" fill="#000000" transform="translate(0,0)"/>
<path d="" fill="#000000" transform="translate(0,0)"/>
<path d="" fill="#000000" transform="translate(0,0)"/>
<path d="" fill="#000000" transform="translate(0,0)"/>
<path d="" fill="#000000" transform="translate(0,0)"/>
<path d="" fill="#000000" transform="translate(0,0)"/>
<path d="" fill="#000000" transform="translate(0,0)"/>
<path d="" fill="#000000" transform="translate(0,0)"/>
<path d="" fill="#000000" transform="translate(0,0)"/>
<path d="" fill="#000000" transform="translate(0,0)"/>
<path d="" fill="#000000" transform="translate(0,0)"/>
<path d="" fill="#000000" transform="translate(0,0)"/>
<path d="" fill="#000000" transform="translate(0,0)"/>
<path d="" fill="#000000" transform="translate(0,0)"/>
<path d="" fill="#000000" transform="translate(0,0)"/>
<path d="" fill="#000000" transform="translate(0,0)"/>
<path d="" fill="#000000" transform="translate(0,0)"/>
<path d="" fill="#000000" transform="translate(0,0)"/>
<path d="" fill="#000000" transform="translate(0,0)"/>
<path d="" fill="#000000" transform="translate(0,0)"/>
<path d="" fill="#000000" transform="translate(0,0)"/>
<path d="" fill="#000000" transform="translate(0,0)"/>
<path d="" fill="#000000" transform="translate(0,0)"/>
<path d="" fill="#000000" transform="translate(0,0)"/>
<path d="" fill="#000000" transform="translate(0,0)"/>
<path d="" fill="#000000" transform="translate(0,0)"/>
<path d="" fill="#000000" transform="translate(0,0)"/>
<path d="" fill="#000000" transform="translate(0,0)"/>
<path d="" fill="#000000" transform="translate(0,0)"/>
<path d="" fill="#000000" transform="translate(0,0)"/>
<path d="" fill="#000000" transform="translate(0,0)"/>
<path d="" fill="#000000" transform="translate(0,0)"/>
<path d="" fill="#000000" transform="translate(0,0)"/>
</svg>
