<?xml version="1.0" standalone="no"?>
<!DOCTYPE svg PUBLIC "-//W3C//DTD SVG 20010904//EN"
 "http://www.w3.org/TR/2001/REC-SVG-20010904/DTD/svg10.dtd">
<svg version="1.0" xmlns="http://www.w3.org/2000/svg"
 width="474.000000pt" height="184.000000pt" viewBox="0 0 474.000000 184.000000"
 preserveAspectRatio="xMidYMid meet">

<g transform="translate(0.000000,184.000000) scale(0.100000,-0.100000)"
fill="rgba(255,255,255,0.5)" stroke="none">
<path d="M4424 1409 c-266 -525 -328 -624 -443 -703 -80 -56 -158 -25 -168 67
-14 124 144 290 332 348 70 22 75 26 75 51 0 24 -4 28 -28 28 -77 0 -218 -64
-323 -147 -111 -87 -205 -238 -215 -345 -4 -43 -1 -62 18 -97 83 -158 299 -76
469 177 46 69 51 73 46 42 -13 -71 -20 -179 -13 -204 16 -63 87 -85 162 -50
38 18 114 90 114 108 0 30 -23 35 -60 13 -32 -18 -42 -19 -64 -9 -24 11 -26
16 -26 74 0 123 83 342 291 767 77 156 138 285 137 286 -5 4 -71 25 -78 25 -4
0 -105 -194 -226 -431z"/>
<path d="M1025 1634 c-22 -2 -85 -14 -140 -25 -281 -58 -479 -198 -530 -373
-43 -148 37 -312 208 -427 l62 -41 22 28 22 28 -77 80 c-101 106 -117 139
-117 241 0 75 2 84 32 124 63 86 195 164 340 202 83 21 331 46 359 35 13 -5 1
-21 -55 -72 -147 -136 -228 -278 -331 -578 l-65 -190 -80 -13 c-225 -37 -429
-136 -558 -272 -70 -73 -100 -136 -101 -211 -3 -197 213 -221 481 -54 91 57
215 178 261 256 19 31 50 94 69 140 20 46 41 86 47 91 6 4 45 7 86 6 l75 -2 6
30 c6 29 4 31 -30 37 -20 3 -53 6 -73 6 -26 0 -38 5 -38 14 0 17 68 215 110
320 93 234 211 403 342 487 69 44 78 98 21 120 -29 11 -277 20 -348 13z m-299
-1075 c-41 -205 -250 -423 -420 -437 -45 -4 -56 -1 -82 21 -26 23 -29 31 -29
84 1 46 7 69 28 105 63 109 227 204 417 243 95 19 93 20 86 -16z"/>
<path d="M2344 1175 c-63 -137 -141 -401 -160 -542 -6 -50 -5 -53 20 -63 75
-28 69 -32 131 96 76 162 138 265 197 329 74 81 147 96 185 39 21 -33 11 -76
-54 -217 -25 -56 -48 -122 -51 -147 -4 -40 0 -49 27 -79 30 -32 34 -33 90 -29
48 3 67 11 110 42 66 49 118 121 101 141 -18 22 -29 19 -76 -25 -48 -44 -72
-49 -97 -22 -28 31 -19 76 42 214 64 146 76 193 62 231 -18 46 -50 67 -104 67
-111 0 -235 -101 -370 -302 -28 -42 -53 -75 -55 -73 -5 4 69 277 93 344 17 49
14 56 -28 66 -26 7 -29 4 -63 -70z"/>
<path d="M3447 1209 c-107 -15 -226 -87 -329 -198 -77 -82 -112 -157 -116
-246 -6 -116 36 -178 137 -205 82 -22 208 15 307 90 67 51 83 76 57 95 -15 12
-26 9 -78 -20 -82 -46 -137 -59 -180 -45 -37 12 -91 68 -78 80 4 4 31 15 58
25 153 55 315 162 366 243 29 46 40 120 21 148 -21 31 -84 44 -165 33z m28
-104 c14 -13 25 -30 25 -38 0 -27 -57 -98 -106 -134 -49 -35 -202 -113 -223
-113 -32 0 11 108 76 187 54 66 137 119 191 122 7 1 24 -10 37 -24z"/>
<path d="M1970 1112 c-85 -182 -204 -347 -282 -388 -55 -29 -109 -14 -126 35
-18 51 32 220 103 347 l34 61 -42 17 c-41 16 -42 16 -61 -6 -28 -33 -111 -213
-142 -305 -34 -103 -43 -226 -20 -275 35 -73 99 -73 213 1 53 34 81 62 176
176 l25 29 -10 -59 c-23 -145 37 -228 141 -196 45 13 121 77 152 127 20 32 20
37 6 51 -14 15 -19 13 -52 -15 -62 -55 -113 -50 -129 13 -8 30 26 138 98 315
l55 135 -32 17 c-18 9 -39 17 -47 17 -9 1 -32 -36 -60 -97z"/>
</g>
</svg>
